# xmcd CD database file
# Copyright (C) 1993-1998 Ti Kan
#
# Track frame offsets:
#	150
#	14223
#	30902
#	41428
#	60259
#	77954
#	85940
#	97276
#	122445
#	137778
#	153940
#	172820
#	188126
#	208997
#
# Disc length: 3033 seconds
#
# Revision: 0
# Processed by: cddbd v1.4b41PL1 Copyright (c) Steve Scherf et al.
# Submitted via: CDmax 1.5
#
DISCID=b40bd70e
DTITLE=Liz Mandville Greeson - Look At Me
DYEAR=1900
DGENRE=
TTITLE0=Look At Me Look At Me
TTITLE1=I'm On A Rocket Tonight
TTITLE2=Fish Food
TTITLE3=Everybody's Breaking Up (Except You And Me)
TTITLE4=Shoulda Ben A Love Song
TTITLE5=I Don't Like Ya No More
TTITLE6=That's What A Man'll Do To You
TTITLE7=Gone Away, Problem Solved
TTITLE8=Someday You'll Win
TTITLE9=The Money's All Spent
TTITLE10=Life Sentence Of The Blues
TTITLE11=I'm So Blue (Cause Both Of My Men Are Gone)
TTITLE12=Trouble Times
TTITLE13=Look In Your Heart
EXTD=
EXTT0=
EXTT1=
EXTT2=
EXTT3=
EXTT4=
EXTT5=
EXTT6=
EXTT7=
EXTT8=
EXTT9=
EXTT10=
EXTT11=
EXTT12=
EXTT13=
PLAYORDER=
